<svg width="43" height="43" viewBox="0 0 43 43" fill="none" xmlns="http://www.w3.org/2000/svg">
<path fill-rule="evenodd" clip-rule="evenodd" d="M20.515 12.9687C24.7288 12.9687 28.15 16.3899 28.15 20.6037C28.15 24.8177 24.7288 28.2387 20.515 28.2387C16.3012 28.2387 12.88 24.8177 12.88 20.6037C12.88 16.3899 16.3012 12.9687 20.515 12.9687ZM20.515 15.5865C23.2841 15.5865 25.5323 17.8346 25.5323 20.6037C25.5323 23.3729 23.2841 25.621 20.515 25.621C17.7459 25.621 15.4977 23.3729 15.4977 20.6037C15.4977 17.8346 17.7459 15.5865 20.515 15.5865Z" fill="black"/>
<path d="M30 30.0313C30 30.0313 24.0361 24.0739 24 24.0313" stroke="black" stroke-width="2" stroke-miterlimit="1.5" stroke-linejoin="round"/>
</svg>
