<svg width="46" height="33" viewBox="0 0 46 33" fill="none" xmlns="http://www.w3.org/2000/svg">
<path fill-rule="evenodd" clip-rule="evenodd" d="M37.9735 6.02149C34.9771 2.31027 28.3756 0.843917 28.3422 0.858703C28.3088 0.873489 28.825 0.139989 28.8526 0.0949887C33.7608 0.0853458 39.0406 3.95342 39.1461 4.03828C45.0083 13.8412 45.3136 26.5351 45.2525 26.6797C41.0264 32.0456 31.9139 32.819 31.9139 32.819L30.2393 30.5285L30.3119 30.5086C36.3226 28.8809 38.8278 24.8688 39.0085 24.6515L39.0188 24.6425C39.0175 24.6419 39.0143 24.6451 39.0085 24.6515C33.2202 29.8593 23.317 29.6716 22.9139 29.6639C22.5108 29.6716 12.607 29.8593 6.81933 24.6515C6.81355 24.6451 6.81033 24.6419 6.80905 24.6425L6.81933 24.6515C6.99998 24.8694 9.50519 28.8815 15.5153 30.5086L15.5885 30.5285L13.9133 32.819C13.9133 32.819 4.8014 32.0456 0.575259 26.6797C0.514188 26.5351 0.818902 13.8412 6.68112 4.03828C6.78655 3.95342 12.067 0.0853458 16.9752 0.0949887C17.0028 0.139989 17.5184 0.873489 17.4856 0.858703C17.4522 0.843917 10.8507 2.31027 7.85433 6.02149C7.8524 6.02278 7.85176 6.02406 7.85176 6.0247L7.85433 6.02149C8.01183 5.87878 14.8936 2.0692 22.9017 2.06149H22.9261C30.9342 2.0692 37.816 5.87878 37.9735 6.02149L37.9761 6.0247C37.9761 6.02406 37.9748 6.02278 37.9735 6.02149ZM16.4435 14.1125C18.7913 14.1125 20.6967 16.0179 20.6967 18.3656C20.6967 20.7127 18.7913 22.6188 16.4435 22.6188C14.0958 22.6188 12.1904 20.7127 12.1904 18.3656C12.1904 16.0179 14.0958 14.1125 16.4435 14.1125ZM29.5038 14.1125C31.8509 14.1125 33.757 16.0179 33.757 18.3656C33.757 20.7127 31.8509 22.6188 29.5038 22.6188C27.1561 22.6188 25.25 20.7127 25.25 18.3656C25.25 16.0179 27.1561 14.1125 29.5038 14.1125Z" fill="#4C4C4C"/>
</svg>
