<?xml version="1.0" encoding="UTF-8" standalone="no"?>
<svg
   xmlns:dc="http://purl.org/dc/elements/1.1/"
   xmlns:cc="http://creativecommons.org/ns#"
   xmlns:rdf="http://www.w3.org/1999/02/22-rdf-syntax-ns#"
   xmlns:svg="http://www.w3.org/2000/svg"
   xmlns="http://www.w3.org/2000/svg"
   xmlns:sodipodi="http://sodipodi.sourceforge.net/DTD/sodipodi-0.dtd"
   xmlns:inkscape="http://www.inkscape.org/namespaces/inkscape"
   inkscape:export-ydpi="96"
   inkscape:export-xdpi="96"
   inkscape:export-filename="C:\Users\Victor\GitHub\eggx-io\frontend\src\assets\eggx-share-logo-square.png"
   width="292.13516"
   height="292.71014"
   viewBox="0 0 292.13517 292.71014"
   fill="none"
   version="1.1"
   id="svg18"
   sodipodi:docname="eggx-share-logo-square.svg"
   inkscape:version="1.0 (4035a4fb49, 2020-05-01)">
  <metadata
     id="metadata24">
    <rdf:RDF>
      <cc:Work
         rdf:about="">
        <dc:format>image/svg+xml</dc:format>
        <dc:type
           rdf:resource="http://purl.org/dc/dcmitype/StillImage" />
        <dc:title></dc:title>
      </cc:Work>
    </rdf:RDF>
  </metadata>
  <defs
     id="defs22" />
  <sodipodi:namedview
     inkscape:document-rotation="0"
     pagecolor="#ffd600"
     bordercolor="#666666"
     borderopacity="1"
     objecttolerance="10"
     gridtolerance="10"
     guidetolerance="10"
     inkscape:pageopacity="0"
     inkscape:pageshadow="2"
     inkscape:window-width="1920"
     inkscape:window-height="986"
     id="namedview20"
     showgrid="false"
     fit-margin-top="76.5"
     fit-margin-left="50"
     fit-margin-right="50"
     fit-margin-bottom="76.5"
     inkscape:zoom="1.6581654"
     inkscape:cx="210.61657"
     inkscape:cy="132.93691"
     inkscape:window-x="-11"
     inkscape:window-y="-11"
     inkscape:window-maximized="1"
     inkscape:current-layer="svg18" />
  <path
     fill-rule="evenodd"
     clip-rule="evenodd"
     d="m 100.36402,77.126683 c 0,0 -0.565766,16.154838 -0.502231,16.183126 0.06051,0.02829 -23.885287,-6.249651 -19.064783,9.666781 4.820805,15.91505 11.779418,30.50484 -5.021094,43.97944 0.196657,-0.20755 -24.629859,0.31767 -24.628346,0.17094 0.0067,-0.35429 0.185765,-1.37115 -1.147566,-7.09023 0.06203,-0.20875 23.124983,0.22359 13.359932,-22.95918 -9.763842,-23.181836 -6.571654,-40.534087 12.213877,-40.575843 18.784625,-0.04175 24.859801,0.692314 24.790211,0.624966 z"
     fill="#292929"
     id="path2"
     style="stroke-width:3.02548" />
  <path
     fill-rule="evenodd"
     clip-rule="evenodd"
     d="m 100.36402,215.58217 c 0,0 -0.565766,-16.15487 -0.502231,-16.1818 0.06051,-0.0281 -23.885287,6.24823 -19.064783,-9.66672 4.820805,-15.91526 11.715882,-31.22693 -5.084629,-44.70123 0.173965,0.14008 -24.576913,0.0375 -24.564811,0.16156 0.04175,0.38394 0.185765,1.75902 -1.147566,7.47809 0.06203,0.20876 23.124983,-0.22358 13.359932,22.95949 -9.763842,23.18307 -6.571654,40.53392 12.213877,40.57688 18.784625,0.0418 24.859801,-0.69374 24.790211,-0.62627 z"
     fill="#292929"
     id="path4"
     style="stroke-width:3.02548" />
  <path
     fill-rule="evenodd"
     clip-rule="evenodd"
     d="m 191.76994,77.126683 c 0,0 0.56576,16.154838 0.50525,16.183126 -0.0635,0.02829 23.88317,-6.249651 19.06358,9.666781 -4.82262,15.91505 -11.77821,30.50484 5.01927,43.97944 -0.19363,-0.20755 24.63349,0.31767 24.63047,0.17094 -0.009,-0.35429 -0.18758,-1.37115 1.14666,-7.09023 -0.0635,-0.20875 -23.12378,0.22359 -13.36054,-22.95918 9.76323,-23.181836 6.57135,-40.534087 -12.21388,-40.575843 -18.78523,-0.04175 -24.85737,0.692314 -24.79081,0.624966 z"
     fill="#292929"
     id="path6"
     style="stroke-width:3.02548" />
  <path
     fill-rule="evenodd"
     clip-rule="evenodd"
     d="m 191.76994,215.22577 c 0,0 0.56576,-16.15488 0.50525,-16.18301 -0.0635,-0.0272 23.88317,6.24944 19.06358,-9.66552 -4.82262,-15.91646 -11.7177,-31.22813 5.08281,-44.70273 -0.17246,0.14008 24.57902,0.039 24.56693,0.16156 -0.0424,0.38393 -0.18758,1.76053 1.14666,7.4796 -0.0635,0.20876 -23.12378,-0.22358 -13.36054,22.95949 9.76323,23.18156 6.57135,40.53392 -12.21388,40.57567 -18.78523,0.0418 -24.85737,-0.69253 -24.79081,-0.62506 z"
     fill="#292929"
     id="path8"
     style="stroke-width:3.02548" />
  <path
     fill-rule="evenodd"
     clip-rule="evenodd"
     d="m 145.92176,128.15355 c 0.0303,-0.0254 12.96722,-15.97153 12.97025,-15.99724 0.13917,-0.82959 21.84701,0.21299 22.55195,-0.12647 0.88344,-0.42448 1.66704,16.08741 0.32675,16.39056 -0.0847,0.0203 -19.5416,18.73137 -19.48714,18.66814 0.0575,-0.0632 18.72472,20.83258 18.97886,20.80444 1.11338,-0.12253 1.40988,14.67178 0.54762,16.04172 -0.68074,1.08161 -23.01486,1.44255 -22.3553,0.66137 0.0151,-0.0218 -13.63284,-17.68244 -13.53299,-17.68244 h -0.009 c -0.0968,0.005 -13.54809,17.66066 -13.52994,17.68244 0.65956,0.78118 -21.67759,0.42024 -22.3553,-0.66137 -0.86227,-1.36994 -0.56577,-16.16425 0.54761,-16.04172 0.25111,0.0281 18.91835,-20.86767 18.97583,-20.80444 0.0575,0.0632 -19.3994,-18.64787 -19.48714,-18.66814 -1.34029,-0.30315 -0.55366,-16.81504 0.32675,-16.39056 0.70494,0.33946 22.41581,-0.70312 22.55196,0.12647 0.003,0.0257 12.93394,15.99875 12.97025,15.99724 z"
     fill="#292929"
     id="path10"
     style="stroke-width:3.02548" />
  <rect
     y="-4.8246093"
     x="-7.2369137"
     height="306.96576"
     width="312.39343"
     id="rect11"
     style="fill:none;fill-opacity:0;stroke-width:1.617" />
  <rect
     y="0.60307616"
     x="1.2061523"
     height="287.66733"
     width="282.84271"
     id="rect13"
     style="fill:none;fill-opacity:0;stroke-width:1.617" />
</svg>
