<svg width="150" height="47" viewBox="0 0 150 47" fill="none" xmlns="http://www.w3.org/2000/svg">
<path fill-rule="evenodd" clip-rule="evenodd" d="M103.141 0.301312C103.141 0.301312 102.954 5.6409 102.975 5.65025C102.995 5.6596 95.0803 3.58458 96.6736 8.84537C98.267 14.1057 100.567 18.928 95.014 23.3817C95.079 23.3131 86.8732 23.4867 86.8737 23.4382C86.8759 23.3211 86.9351 22.985 86.4944 21.0947C86.5149 21.0257 94.1378 21.1686 90.9102 13.5061C87.683 5.84391 88.7381 0.108546 94.9472 0.0947449C101.156 0.0809441 103.164 0.323572 103.141 0.301312Z" fill="#292929"/>
<path fill-rule="evenodd" clip-rule="evenodd" d="M103.141 46.0644C103.141 46.0644 102.954 40.7248 102.975 40.7159C102.995 40.7066 95.0803 42.7811 96.6736 37.5208C98.267 32.2604 100.546 27.1995 94.993 22.7459C95.0505 22.7922 86.8697 22.7583 86.8737 22.7993C86.8875 22.9262 86.9351 23.3807 86.4944 25.271C86.5149 25.34 94.1378 25.1971 90.9102 32.8597C87.683 40.5223 88.7381 46.2572 94.9472 46.2714C101.156 46.2852 103.164 46.0421 103.141 46.0644Z" fill="#292929"/>
<path fill-rule="evenodd" clip-rule="evenodd" d="M133.353 0.301312C133.353 0.301312 133.54 5.6409 133.52 5.65025C133.499 5.6596 141.414 3.58458 139.821 8.84537C138.227 14.1057 135.928 18.928 141.48 23.3817C141.416 23.3131 149.622 23.4867 149.621 23.4382C149.618 23.3211 149.559 22.985 150 21.0947C149.979 21.0257 142.357 21.1686 145.584 13.5061C148.811 5.84391 147.756 0.108546 141.547 0.0947449C135.338 0.0809441 133.331 0.323572 133.353 0.301312Z" fill="#292929"/>
<path fill-rule="evenodd" clip-rule="evenodd" d="M133.353 45.9466C133.353 45.9466 133.54 40.607 133.52 40.5977C133.499 40.5887 141.414 42.6633 139.821 37.403C138.227 32.1422 135.948 27.0813 141.501 22.6276C141.444 22.6739 149.625 22.6405 149.621 22.681C149.607 22.8079 149.559 23.2629 150 25.1532C149.979 25.2222 142.357 25.0793 145.584 32.7419C148.811 40.404 147.756 46.1394 141.547 46.1532C135.338 46.167 133.331 45.9243 133.353 45.9466Z" fill="#292929"/>
<path fill-rule="evenodd" clip-rule="evenodd" d="M118.199 17.167C118.209 17.1586 122.485 11.888 122.486 11.8795C122.532 11.6053 129.707 11.9499 129.94 11.8377C130.232 11.6974 130.491 17.155 130.048 17.2552C130.02 17.2619 123.589 23.4464 123.607 23.4255C123.626 23.4046 129.796 30.3112 129.88 30.3019C130.248 30.2614 130.346 35.1513 130.061 35.6041C129.836 35.9616 122.454 36.0809 122.672 35.8227C122.677 35.8155 118.166 29.9782 118.199 29.9782H118.196C118.164 29.98 113.718 35.8155 113.724 35.8227C113.942 36.0809 106.559 35.9616 106.335 35.6041C106.05 35.1513 106.148 30.2614 106.516 30.3019C106.599 30.3112 112.769 23.4046 112.788 23.4255C112.807 23.4464 106.376 17.2619 106.347 17.2552C105.904 17.155 106.164 11.6974 106.455 11.8377C106.688 11.9499 113.864 11.6053 113.909 11.8795C113.91 11.888 118.184 17.1675 118.196 17.167H118.199Z" fill="#292929"/>
<path d="M13.9188 29.5213C14.9071 29.5213 15.7379 29.3882 16.4105 29.122C17.0832 28.8558 17.8173 28.3972 18.6133 27.7463L23.473 33.0272C21.2217 35.6306 17.9411 36.9324 13.6308 36.9324C10.9129 36.9324 8.52447 36.3924 6.46548 35.3128C4.40648 34.2327 2.81404 32.7311 1.6886 30.8084C0.563164 28.8851 0 26.7255 0 24.3291C0 21.9032 0.563164 19.7361 1.6886 17.828C2.81404 15.9199 4.3584 14.433 6.32124 13.3681C8.28407 12.3032 10.4873 11.7708 12.9305 11.7708C15.1542 11.7708 17.1999 12.2511 19.0665 13.2127C20.9332 14.1743 22.4157 15.5945 23.514 17.4732C24.6123 19.3514 25.1612 21.5925 25.1612 24.196L9.75987 27.3911C10.4464 28.8112 11.8327 29.5213 13.9188 29.5213ZM12.9719 18.6048C11.9012 18.6048 11.0296 18.945 10.3569 19.6252C9.68419 20.3059 9.27951 21.3116 9.14195 22.6432L16.3487 21.134C16.1016 20.3651 15.6831 19.7512 15.0928 19.2927C14.5025 18.8341 13.7955 18.6048 12.9719 18.6048Z" fill="#292929"/>
<path d="M53.2453 12.2142V31.6515C53.2453 36.2668 52.058 39.7357 49.6834 42.0578C47.3087 44.3804 43.9248 45.5414 39.5326 45.5414C37.2813 45.5414 35.1809 45.2828 33.2318 44.765C31.2828 44.2473 29.6218 43.5002 28.2493 42.5239L31.379 35.6899C32.2573 36.3999 33.369 36.9769 34.7143 37.4203C36.0597 37.8642 37.3498 38.0863 38.5852 38.0863C40.4519 38.0863 41.8111 37.6571 42.6623 36.7993C43.513 35.9414 43.9386 34.6837 43.9386 33.0272V32.5833C42.5385 34.2995 40.4657 35.1574 37.7207 35.1574C35.7988 35.1574 34.0074 34.6766 32.3464 33.715C30.6854 32.7534 29.3609 31.3778 28.3726 29.5881C27.3843 27.798 26.8901 25.7492 26.8901 23.4418C26.8901 21.134 27.3843 19.0928 28.3726 17.3178C29.3609 15.5424 30.6854 14.1743 32.3464 13.2127C34.0074 12.2511 35.7988 11.7708 37.7207 11.7708C40.7952 11.7708 43.0189 12.8356 44.3918 14.9659V12.2142H53.2453ZM40.1915 27.347C41.2893 27.347 42.2024 26.9846 42.9298 26.2599C43.6573 25.5347 44.021 24.5957 44.021 23.4418C44.021 22.2879 43.6573 21.3561 42.9298 20.646C42.2024 19.936 41.2893 19.5807 40.1915 19.5807C39.0656 19.5807 38.1392 19.936 37.4117 20.646C36.6843 21.3561 36.3206 22.2879 36.3206 23.4418C36.3206 24.5957 36.691 25.5347 37.4322 26.2599C38.1734 26.9846 39.0932 27.347 40.1915 27.347Z" fill="#292929"/>
<path d="M82.5246 12.2142V31.6515C82.5246 36.2668 81.3373 39.7357 78.9626 42.0578C76.5876 44.3804 73.2041 45.5414 68.8115 45.5414C66.5606 45.5414 64.4602 45.2828 62.5111 44.765C60.5617 44.2473 58.9007 43.5002 57.5281 42.5239L60.6578 35.6899C61.5366 36.3999 62.6483 36.9769 63.9936 37.4203C65.3385 37.8642 66.6291 38.0863 67.8645 38.0863C69.7312 38.0863 71.0904 37.6571 71.9411 36.7993C72.7923 35.9414 73.2179 34.6837 73.2179 33.0272V32.5833C71.8178 34.2995 69.745 35.1574 66.9995 35.1574C65.0781 35.1574 63.2867 34.6766 61.6257 33.715C59.9647 32.7534 58.6402 31.3778 57.6519 29.5881C56.6636 27.798 56.1694 25.7492 56.1694 23.4418C56.1694 21.134 56.6636 19.0928 57.6519 17.3178C58.6402 15.5424 59.9647 14.1743 61.6257 13.2127C63.2867 12.2511 65.0781 11.7708 66.9995 11.7708C70.0745 11.7708 72.2982 12.8356 73.6707 14.9659V12.2142H82.5246ZM69.4703 27.347C70.5686 27.347 71.4813 26.9846 72.2087 26.2599C72.9366 25.5347 73.3003 24.5957 73.3003 23.4418C73.3003 22.2879 72.9366 21.3561 72.2087 20.646C71.4813 19.936 70.5686 19.5807 69.4703 19.5807C68.3449 19.5807 67.4185 19.936 66.6906 20.646C65.9631 21.3561 65.5994 22.2879 65.5994 23.4418C65.5994 24.5957 65.9703 25.5347 66.7115 26.2599C67.4527 26.9846 68.3725 27.347 69.4703 27.347Z" fill="#292929"/>
</svg>
