<svg width="100" height="31" viewBox="0 0 100 31" fill="none" xmlns="http://www.w3.org/2000/svg">
<path fill-rule="evenodd" clip-rule="evenodd" d="M68.7606 0.245512C68.7606 0.245512 68.6363 3.80524 68.6499 3.81147C68.6636 3.81771 63.3869 2.43436 64.4491 5.94155C65.5114 9.44845 67.0446 12.6633 63.3427 15.6324C63.386 15.5867 57.9155 15.7025 57.9158 15.6701C57.9173 15.5921 57.9568 15.368 57.663 14.1078C57.6766 14.0618 62.7586 14.1571 60.6069 9.04867C58.4554 3.94058 59.1588 0.117001 63.2982 0.1078C67.4375 0.0985998 68.7758 0.260352 68.7606 0.245512Z" fill="#292929"/>
<path fill-rule="evenodd" clip-rule="evenodd" d="M68.7606 30.7543C68.7606 30.7543 68.6363 27.1945 68.6499 27.1886C68.6636 27.1824 63.3869 28.5654 64.4491 25.0585C65.5114 21.5516 67.0309 18.1777 63.3287 15.2086C63.367 15.2394 57.9132 15.2169 57.9158 15.2442C57.925 15.3288 57.9568 15.6318 57.663 16.892C57.6766 16.938 62.7586 16.8427 60.6069 21.9511C58.4554 27.0595 59.1588 30.8828 63.2982 30.8923C67.4375 30.9015 68.7758 30.7394 68.7606 30.7543Z" fill="#292929"/>
<path fill-rule="evenodd" clip-rule="evenodd" d="M88.9023 0.245512C88.9023 0.245512 89.027 3.80524 89.013 3.81147C88.9994 3.81771 94.2761 2.43436 93.2139 5.94155C92.1516 9.44845 90.6184 12.6633 94.3203 15.6324C94.2773 15.5867 99.7477 15.7025 99.7472 15.6701C99.7457 15.5921 99.7062 15.368 100 14.1078C99.9864 14.0618 94.9044 14.1571 97.0561 9.04867C99.2076 3.94058 98.5042 0.117001 94.3648 0.1078C90.2254 0.0985998 88.8872 0.260352 88.9023 0.245512Z" fill="#292929"/>
<path fill-rule="evenodd" clip-rule="evenodd" d="M88.9023 30.6757C88.9023 30.6757 89.027 27.116 89.013 27.1097C88.9994 27.1038 94.2761 28.4868 93.2139 24.9799C92.1516 21.4728 90.6321 18.0988 94.3342 15.1297C94.296 15.1606 99.7498 15.1383 99.7472 15.1653C99.7383 15.2499 99.7062 15.5532 100 16.8134C99.9864 16.8594 94.9044 16.7641 97.0561 21.8725C99.2076 26.9806 98.5042 30.8042 94.3648 30.8134C90.2254 30.8226 88.8872 30.6609 88.9023 30.6757Z" fill="#292929"/>
<path fill-rule="evenodd" clip-rule="evenodd" d="M78.7995 11.4893C78.8057 11.4837 81.6567 7.96994 81.6576 7.9643C81.6879 7.78148 86.4713 8.01119 86.6268 7.9364C86.8212 7.84291 86.9943 11.4813 86.6987 11.5481C86.68 11.5525 82.3925 15.6756 82.405 15.6616C82.4174 15.6477 86.5307 20.2521 86.5865 20.2459C86.8319 20.2189 86.8972 23.4788 86.7073 23.7807C86.5574 24.019 81.6357 24.0985 81.7811 23.9264C81.785 23.9217 78.7776 20.0301 78.7995 20.0301H78.7974C78.7758 20.0313 75.812 23.9217 75.8159 23.9264C75.9613 24.0985 71.0396 24.019 70.8897 23.7807C70.7001 23.4788 70.7653 20.2189 71.0105 20.2459C71.0663 20.2521 75.1795 15.6477 75.192 15.6616C75.2045 15.6756 70.9173 11.5525 70.8983 11.5481C70.6027 11.4813 70.7757 7.84291 70.9701 7.9364C71.1257 8.01119 75.9091 7.78148 75.9393 7.9643C75.9402 7.96994 78.7891 11.4896 78.7974 11.4893H78.7995Z" fill="#292929"/>
<path d="M9.27922 19.7255C9.9381 19.7255 10.4919 19.6368 10.9404 19.4593C11.3888 19.2818 11.8782 18.9761 12.4089 18.5422L15.6487 22.0627C14.1478 23.7984 11.9607 24.6662 9.08719 24.6662C7.27528 24.6662 5.68298 24.3062 4.31032 23.5865C2.93765 22.8665 1.87603 21.8654 1.12573 20.5835C0.375442 19.3014 0 17.8616 0 16.264C0 14.6468 0.375442 13.202 1.12573 11.9299C1.87603 10.6579 2.9056 9.6666 4.21416 8.95668C5.52272 8.24675 6.99154 7.89178 8.62034 7.89178C10.1028 7.89178 11.4666 8.21202 12.711 8.8531C13.9555 9.49417 14.9438 10.4409 15.676 11.6934C16.4082 12.9456 16.7741 14.4396 16.7741 16.1753L6.50658 18.3053C6.96424 19.2521 7.88845 19.7255 9.27922 19.7255ZM8.64794 12.4478C7.93415 12.4478 7.35303 12.6746 6.90458 13.1281C6.45613 13.5819 6.18634 14.2523 6.09464 15.1401L10.8991 14.1339C10.7344 13.6214 10.4554 13.2121 10.0619 12.9064C9.66831 12.6007 9.19701 12.4478 8.64794 12.4478Z" fill="#292929"/>
<path d="M35.4969 8.18739V21.1456C35.4969 24.2225 34.7054 26.5351 33.1223 28.0832C31.5392 29.6315 29.2833 30.4056 26.3551 30.4056C24.8543 30.4056 23.454 30.2331 22.1546 29.888C20.8553 29.5428 19.7479 29.0448 18.8329 28.3939L20.9194 23.8379C21.505 24.3112 22.246 24.6959 23.1429 24.9915C24.0399 25.2874 24.9 25.4355 25.7236 25.4355C26.968 25.4355 27.8741 25.1494 28.4416 24.5775C29.0088 24.0055 29.2925 23.1671 29.2925 22.0627V21.7668C28.3591 22.911 26.9772 23.4829 25.1472 23.4829C23.8659 23.4829 22.6716 23.1624 21.5643 22.5213C20.457 21.8802 19.574 20.9631 18.9151 19.77C18.2563 18.5766 17.9268 17.2108 17.9268 15.6725C17.9268 14.1339 18.2563 12.7731 18.9151 11.5898C19.574 10.4062 20.457 9.49417 21.5643 8.8531C22.6716 8.21202 23.8659 7.89178 25.1472 7.89178C27.1968 7.89178 28.6793 8.60171 29.5946 10.0219V8.18739H35.4969ZM26.7944 18.276C27.5263 18.276 28.135 18.0344 28.62 17.5512C29.1049 17.0677 29.3474 16.4418 29.3474 15.6725C29.3474 14.9032 29.1049 14.282 28.62 13.8086C28.135 13.3353 27.5263 13.0984 26.7944 13.0984C26.0438 13.0984 25.4262 13.3353 24.9412 13.8086C24.4563 14.282 24.2138 14.9032 24.2138 15.6725C24.2138 16.4418 24.4607 17.0677 24.9549 17.5512C25.449 18.0344 26.0622 18.276 26.7944 18.276Z" fill="#292929"/>
<path d="M55.0164 8.18739V21.1456C55.0164 24.2225 54.2249 26.5351 52.6418 28.0832C51.0584 29.6315 48.8028 30.4056 45.8743 30.4056C44.3737 30.4056 42.9735 30.2331 41.6741 29.888C40.3744 29.5428 39.2671 29.0448 38.3521 28.3939L40.4385 23.8379C41.0244 24.3112 41.7655 24.6959 42.6624 24.9915C43.559 25.2874 44.4194 25.4355 45.243 25.4355C46.4875 25.4355 47.3936 25.1494 47.9608 24.5775C48.5282 24.0055 48.812 23.1671 48.812 22.0627V21.7668C47.8785 22.911 46.4967 23.4829 44.6664 23.4829C43.3854 23.4829 42.1911 23.1624 41.0838 22.5213C39.9764 21.8802 39.0935 20.9631 38.4346 19.77C37.7757 18.5766 37.4463 17.2108 37.4463 15.6725C37.4463 14.1339 37.7757 12.7731 38.4346 11.5898C39.0935 10.4062 39.9764 9.49417 41.0838 8.8531C42.1911 8.21202 43.3854 7.89178 44.6664 7.89178C46.7163 7.89178 48.1988 8.60171 49.1138 10.0219V8.18739H55.0164ZM46.3136 18.276C47.0457 18.276 47.6542 18.0344 48.1391 17.5512C48.6244 17.0677 48.8669 16.4418 48.8669 15.6725C48.8669 14.9032 48.6244 14.282 48.1391 13.8086C47.6542 13.3353 47.0457 13.0984 46.3136 13.0984C45.5633 13.0984 44.9456 13.3353 44.4604 13.8086C43.9754 14.282 43.7329 14.9032 43.7329 15.6725C43.7329 16.4418 43.9802 17.0677 44.4743 17.5512C44.9685 18.0344 45.5817 18.276 46.3136 18.276Z" fill="#292929"/>
</svg>
