<svg width="43" height="43" viewBox="0 0 43 43" fill="none" xmlns="http://www.w3.org/2000/svg">
<path d="M1.6745 14.3449H10.4898V42.3651H1.6745V14.3449ZM6.08174 11.2436C4.47337 11.2436 3.17487 10.7435 2.1846 9.74411C1.19515 8.7447 0.700012 7.50353 0.700012 6.02226C0.700012 4.54017 1.19515 3.299 2.1846 2.29959C3.17487 1.30017 4.47337 0.800049 6.08174 0.800049C7.6901 0.800049 8.98943 1.27442 9.97971 2.22233C10.9692 3.17023 11.4643 4.38482 11.4643 5.86691C11.4643 7.41796 10.9692 8.7015 9.97971 9.71836C8.98943 10.7352 7.6901 11.2436 6.08174 11.2436Z" fill="#4C4C4C"/>
<path d="M32.5741 13.8795C35.6978 13.8795 38.2109 14.9138 40.1133 16.9816C42.0158 19.0494 42.967 22.1689 42.967 26.3386V42.3649H34.1517V27.9411C34.1517 24.1154 32.7751 22.203 30.022 22.203C28.5067 22.203 27.2929 22.7546 26.3799 23.8571C25.4677 24.9603 25.0116 26.6144 25.0116 28.8201V42.3649H16.1963V14.3447H24.5937V17.3953C25.584 16.258 26.7596 15.3874 28.1203 14.7842C29.4811 14.1811 30.9657 13.8795 32.5741 13.8795Z" fill="#4C4C4C"/>
</svg>
